<svg width="104" height="90" xmlns="http://www.w3.org/2000/svg" xmlns:xlink="http://www.w3.org/1999/xlink" overflow="hidden"><defs><clipPath id="clip0"><rect x="0" y="0" width="104" height="90"/></clipPath><linearGradient x1="13.5795" y1="-9.84395" x2="73.2636" y2="53.7005" gradientUnits="userSpaceOnUse" spreadMethod="pad" id="fill1"><stop offset="0" stop-color="#E63500"/><stop offset="1" stop-color="#FFC316"/></linearGradient></defs><g clip-path="url(#clip0)"><path d="M47.4064 19.4954 47.4064 13.3804 6.84154 13.3804 6.84154 69.5052 13.1987 69.5052 13.1987 45.1663 43.6527 45.1663 43.6527 38.9907 13.1987 38.9907 13.1987 19.4954ZM89.9088 69.5052 89.9088 27.124 83.5516 27.124 83.5516 51.5235C83.5516 59.1521 77.7998 64.4195 70.7766 64.4195 63.814 64.4195 58.9099 59.3337 58.9099 51.6446L58.9099 27.124 52.5527 27.124 52.5527 51.7656C52.5527 63.814 60.7868 70.1712 69.5052 70.1712 76.3468 70.1712 80.5243 66.9623 83.5516 62.9059L83.5516 69.5052ZM119.878 64.4195C111.281 64.4195 105.771 58.4256 104.863 50.8575L140.342 50.8575 140.342 48.3146C140.342 36.2057 132.29 26.458 119.333 26.458 106.377 26.458 98.3245 36.2057 98.3245 48.3146 98.3245 60.4235 106.801 70.1712 119.757 70.1712 129.868 70.1712 136.104 64.9038 139.071 57.2752L132.169 57.2752C129.868 61.5133 125.812 64.4195 119.878 64.4195ZM119.333 32.2097C127.507 32.2097 132.593 37.7193 133.743 44.9241L104.924 44.9241C106.135 37.7193 111.22 32.2097 119.333 32.2097ZM166.074 26.458C153.662 26.458 145.549 36.2057 145.549 48.3146 145.549 60.4235 153.662 70.1712 166.074 70.1712 173.097 70.1712 178.062 67.3256 181.21 62.7242L181.21 69.5052 187.567 69.5052 187.567 10.1715 181.21 10.1715 181.21 33.9655C178.062 29.4247 173.097 26.458 166.074 26.458ZM166.921 64.4195C157.477 64.4195 151.906 57.033 151.906 48.3146 151.906 39.5962 157.477 32.2097 166.921 32.2097 176.306 32.2097 181.573 39.5962 181.573 48.3146 181.573 57.033 176.306 64.4195 166.921 64.4195Z" fill="#361A02" transform="matrix(1 0 0 1 108.979 4.82846)"/><path d="M52.6175 71.6649 64.9125 92.9101 95.8207 39.4931 68.928 39.4931 68.928 22.7035 34.4655 2.91055 0 22.7035 0 62.2954 34.4655 82.0914 52.6175 71.6649ZM85.4361 45.4819 64.9095 80.9535 44.3829 45.4819 85.4361 45.4819Z" fill="url(#fill1)" transform="matrix(1 0 0 1 0.0894323 -1.93857)"/></g></svg>